<svg width="146" height="73" viewBox="0 0 146 73" fill="none" xmlns="http://www.w3.org/2000/svg">
<path d="M0.488281 0L5.53833 0L5.53833 24.625C5.53833 25.8755 5.97921 26.9416 6.86096 27.8234C7.74272 28.7051 8.80082 29.146 10.0353 29.146L26.989 29.146V34.196H10.0353C8.2878 34.196 6.68461 33.7712 5.22571 32.9215C3.78284 32.0558 2.62854 30.9015 1.76282 29.4586C0.913127 27.9997 0.488281 26.3885 0.488281 24.625L0.488281 0Z" fill="white"/>
<path d="M116.715 0L143.24 0V5.05005L121.789 5.05005V29.122L143.24 29.122V34.196H116.715V0ZM124.675 13.8756L143.24 13.8756V18.9257L124.675 18.9257V13.8756Z" fill="white"/>
<path d="M77.5039 0L95.5879 0C97.143 0 98.5538 0.384766 99.8203 1.1543C101.103 1.9078 102.121 2.91781 102.874 4.18433C103.644 5.45085 104.029 6.86165 104.029 8.41675V11.8315C104.029 13.3866 103.652 14.7894 102.898 16.0399C102.161 17.2904 101.151 18.2844 99.8684 19.0219C98.5859 19.7593 97.151 20.1281 95.5638 20.1281L105.76 34.196H99.5798L89.3835 20.1281H85.4637V15.078L95.5879 15.078C96.5338 15.078 97.3354 14.7574 97.9927 14.1161C98.65 13.4588 98.9786 12.6732 98.9786 11.7594V8.41675C98.9786 7.4869 98.65 6.69332 97.9927 6.03601C97.3354 5.3787 96.5338 5.05005 95.5879 5.05005L82.578 5.05005V34.196H77.5039V0Z" fill="white"/>
<path d="M117.633 46.2725C117.633 44.7494 118.01 43.3627 118.763 42.1122C119.533 40.8617 120.559 39.8677 121.841 39.1302C123.14 38.3767 124.567 38 126.122 38H143.821V43.05H126.122C125.192 43.05 124.39 43.3787 123.717 44.036C123.044 44.6933 122.707 45.4869 122.707 46.4167V48.7734C122.707 49.6231 123.044 50.3526 123.717 50.9618C124.39 51.571 125.192 51.8756 126.122 51.8756H137.015C138.587 51.8756 140.013 52.2524 141.296 53.0059C142.578 53.7433 143.596 54.7453 144.35 56.0118C145.12 57.2623 145.504 58.6491 145.504 60.1721V63.8995C145.504 65.4226 145.12 66.8173 144.35 68.0839C143.596 69.3344 142.578 70.3363 141.296 71.0898C140.013 71.8273 138.587 72.196 137.015 72.196H117.657V67.122H137.015C137.961 67.122 138.763 66.8093 139.42 66.1841C140.094 65.5428 140.43 64.7733 140.43 63.8755V60.1962C140.43 59.2984 140.094 58.5289 139.42 57.8876C138.763 57.2463 137.961 56.9257 137.015 56.9257H126.122C124.567 56.9257 123.14 56.5649 121.841 55.8435C120.559 55.106 119.533 54.1201 118.763 52.8856C118.01 51.6512 117.633 50.2885 117.633 48.7975V46.2725Z" fill="white"/>
<path d="M47.1133 38H74.9607V43.05H63.5861V72.196H58.4879V43.05H47.1133V38Z" fill="white"/>
<path d="M34.0391 38.0352H39.1132V72.2312H34.0391L34.0391 38.0352Z" fill="white"/>
<path d="M0 38H18.0118C19.599 38 21.0339 38.3767 22.3164 39.1302C23.599 39.8837 24.617 40.8938 25.3705 42.1603C26.14 43.4268 26.5248 44.8456 26.5248 46.4167V48.6532C26.5248 50.8816 25.8835 52.573 24.601 53.7273C25.7392 54.4648 26.5649 55.3465 27.0779 56.3726C27.5909 57.3826 27.8474 58.6491 27.8474 60.1721V63.9476C27.8474 65.4546 27.4626 66.8334 26.6931 68.0839C25.9396 69.3344 24.9216 70.3363 23.639 71.0898C22.3565 71.8273 20.9377 72.196 19.3826 72.196H0L0 38ZM19.4307 67.122C20.3605 67.122 21.1541 66.8093 21.8114 66.1841C22.4687 65.5428 22.7974 64.7733 22.7974 63.8755V60.1C22.7974 59.2022 22.4687 58.4327 21.8114 57.7914C21.1541 57.1501 20.3525 56.8295 19.4066 56.8295H7.95984V51.7794H18.0118C18.9577 51.7794 19.7673 51.4748 20.4407 50.8656C21.13 50.2404 21.4747 49.4869 21.4747 48.6051V46.4167C21.4747 45.4869 21.13 44.6933 20.4407 44.036C19.7673 43.3787 18.9577 43.05 18.0118 43.05H5.0741L5.0741 67.122H19.4307Z" fill="white"/>
<path d="M83.2695 38H109.794V43.05H88.3436V67.122H109.794V72.196H83.2695V38ZM91.2294 51.8756H109.794V56.9257H91.2294V51.8756Z" fill="white"/>
<path fill-rule="evenodd" clip-rule="evenodd" d="M41.5063 6.45858C41.5021 6.61388 41.5 6.76971 41.5 6.92602C41.5 16.3148 49.1112 23.926 58.5 23.926C59.6364 23.926 60.7468 23.8144 61.8209 23.6018C62.9139 21.6488 63.537 19.3971 63.537 16.9999C63.537 9.52367 57.4763 3.46295 50 3.46295C46.7834 3.46295 43.8289 4.5848 41.5063 6.45858ZM33 16.9999C33 16.9999 33 17 33 16.9999C33 7.61113 40.6112 0 50 0C59.3888 0 67 7.61113 67 16.9999C67 18.7659 66.7307 20.469 66.231 22.0704C66.2309 22.0704 66.231 22.0704 66.231 22.0704C64.0739 28.9828 57.6229 34 50 34C40.6112 34 33 26.3887 33 16.9999Z" fill="white"/>
</svg>
